<?xml version="1.0" encoding="UTF-8"?>
<svg width="18px" height="18px" viewBox="0 0 18 18" version="1.1" xmlns="http://www.w3.org/2000/svg" xmlns:xlink="http://www.w3.org/1999/xlink">
    <!-- Generator: Sketch 63.1 (92452) - https://sketch.com -->
    <title>Crosshairs_1_x2C__Aim_1</title>
    <desc>Created with Sketch.</desc>
    <g id="Find-Event" stroke="none" stroke-width="1" fill="none" fill-rule="evenodd">
        <g id="find-event-search" transform="translate(-258.000000, -1200.000000)" fill="#2AABFE" fill-rule="nonzero">
            <g id="Group-2" transform="translate(121.000000, 976.000000)">
                <path d="M154,232 L152.921,232 C152.481,228.937 150.063,226.519 147,226.079 L147,225 C147,224.447 146.553,224 146,224 C145.447,224 145,224.447 145,225 L145,226.079 C141.937,226.519 139.519,228.937 139.079,232 L138,232 C137.447,232 137,232.447 137,233 C137,233.553 137.447,234 138,234 L139.079,234 C139.519,237.063 141.937,239.481 145,239.921 L145,241 C145,241.553 145.447,242 146,242 C146.553,242 147,241.553 147,241 L147,239.921 C150.063,239.482 152.481,237.064 152.921,234 L154,234 C154.553,234 155,233.553 155,233 C155,232.447 154.553,232 154,232 Z M147,237.898 L147,237 C147,236.447 146.553,236 146,236 C145.447,236 145,236.447 145,237 L145,237.898 C143.044,237.5 141.5,235.956 141.102,234 L142,234 C142.553,234 143,233.553 143,233 C143,232.447 142.553,232 142,232 L141.102,232 C141.5,230.044 143.044,228.5 145,228.102 L145,229 C145,229.553 145.447,230 146,230 C146.553,230 147,229.553 147,229 L147,228.102 C148.956,228.5 150.5,230.044 150.898,232 L150,232 C149.447,232 149,232.447 149,233 C149,233.553 149.447,234 150,234 L150.898,234 C150.5,235.956 148.956,237.5 147,237.898 Z" id="Crosshairs_1_x2C__Aim_1"></path>
            </g>
        </g>
    </g>
</svg>