<svg height="20" viewBox="0 0 26 20" width="26" xmlns="http://www.w3.org/2000/svg"><path d="m60.5879081 230.937543c.0854372-.049231.1936357-.033361.2609299.038219l8.1980135 8.67638c.0573979.060243.0725721.148018.038925.22316-.0329873.075791-.1088582.124698-.1929759.124698h-23.4714813c-.1398664 0-.2774236-.039191-.4199289-.121459-.0577278-.032713-.096323-.091013-.1035802-.156115s.0171534-.129556.0659747-.174253l9.163223-8.345364c.0672942-.061539.1679056-.072227.2477349-.027854l2.4130239 1.353538c.3239356.180731.7362774.179112 1.0582338-.006801zm9.098032-5.453759c.0654834-.037926.1449758-.039575.2101334-.001319.0645061.037595.1039265.107181.1039265.183032v11.396496c0 .087064-.0521261.164564-.1319443.196553-.0244341.009234-.0504971.014181-.0762344.014181-.0573388 0-.1120712-.023415-.1521431-.067277l-6.7568492-7.373077c-.0420266-.0465-.0615739-.110809-.0534292-.173799.009122-.063319.0465877-.119383.1006685-.151043zm-25.5752757-.001316c.0693403-.036687.1551402-.037331.2230798-.001287l7.6225345 4.000908c.0616359.032826.1036603.090432.1113648.15544.0077045.064687-.0185608.129695-.0710914.173785l-7.6207835 6.497291c-.0420244.036044-.0970064.055031-.1519884.055031-.0308179 0-.0612857-.005792-.0900024-.0177-.0812472-.032504-.1337778-.106523-.1337778-.187945v-10.497876c0-.073054.0420244-.140959.1106644-.177647zm25.0262707-5.482468c.4761039 0 .8630649.382512.8630649.852398v1.534382c0 .101048-.0864416.152071-.1701818.208431-.0692208.046689-.2535844.148069-.3231429.18642l-12.3732987 7.189022c-.0334285.019676-.0715844.029347-.1094026.029347-.0371428 0-.0742857-.008671-.1073766-.02768l-12.7589091-7.197692c-.0709091-.036684-.1576883-.127393-.1576883-.20643v-1.715467c0-.470219.386961-.852731.8630649-.852731z" fill="#fff" fill-rule="evenodd" transform="translate(-44 -220)"/></svg>