<?xml version="1.0" encoding="utf-8"?>
<!-- Generator: Adobe Illustrator 16.0.0, SVG Export Plug-In . SVG Version: 6.00 Build 0)  -->
<!DOCTYPE svg PUBLIC "-//W3C//DTD SVG 1.1//EN" "http://www.w3.org/Graphics/SVG/1.1/DTD/svg11.dtd">
<svg version="1.1" id="svg2" xmlns="http://www.w3.org/2000/svg" xmlns:xlink="http://www.w3.org/1999/xlink" x="0px" y="0px"
	 width="235.01px" height="234.99px" viewBox="10.5 10.51 235.01 234.99" enable-background="new 10.5 10.51 235.01 234.99"
	 xml:space="preserve">
<g id="layer1" transform="translate(-373.64 -318.34)">
	<path id="rect1942" fill="#ECECEB" stroke="#000000" stroke-width="0.5" stroke-linecap="square" d="M583.661,328.85H419.628
		c-19.599,0-35.488,15.888-35.488,35.488v164.014c0,19.6,15.889,35.488,35.488,35.488h164.034c19.6,0,35.488-15.889,35.488-35.488
		V364.338C619.15,344.738,603.261,328.85,583.661,328.85z"/>
	
		<linearGradient id="path1950_1_" gradientUnits="userSpaceOnUse" x1="-293.338" y1="-162.5648" x2="-345.0384" y2="-313.256" gradientTransform="matrix(-0.5915 0 0 -0.5915 270.3701 198.1641)">
		<stop  offset="0" style="stop-color:#FFFFFF"/>
		<stop  offset="1" style="stop-color:#FFFFFF;stop-opacity:0"/>
	</linearGradient>
	<path id="path1950" fill="url(#path1950_1_)" d="M557.06,338.9H446.23c-29.34,0-52.96,23.8-52.96,53.38v108.13
		c0.95,23.08,4.6,8.49,11.56-17.08c8.08-29.71,34.39-55.68,66.44-75.14c24.46-14.86,51.84-24.34,101.681-25.25
		C601.22,382.43,598.72,346.26,557.06,338.9z"/>
	<path id="path4776" fill="#0059D4" d="M489.35,442.91c0,22.29-16.629,40.358-37.143,40.358c-20.513,0-37.143-18.07-37.143-40.358
		c0-22.289,16.629-40.357,37.143-40.357C472.72,402.553,489.35,420.622,489.35,442.91z"/>
	<path id="path4778" fill="#DA1593" d="M584.35,442.38c0,21.993-17.108,39.821-38.214,39.821s-38.214-17.829-38.214-39.821
		c0-21.993,17.108-39.821,38.214-39.821S584.35,420.388,584.35,442.38z"/>
</g>
</svg>
