<?xml version="1.0" encoding="utf-8"?>
<!-- Generator: Adobe Illustrator 16.0.0, SVG Export Plug-In . SVG Version: 6.00 Build 0)  -->
<!DOCTYPE svg PUBLIC "-//W3C//DTD SVG 1.1//EN" "http://www.w3.org/Graphics/SVG/1.1/DTD/svg11.dtd">
<svg version="1.1" id="calendar" xmlns="http://www.w3.org/2000/svg" xmlns:xlink="http://www.w3.org/1999/xlink" x="0px" y="0px"
	 width="135.571px" height="146.002px" viewBox="0 0 135.571 146.002" enable-background="new 0 0 135.571 146.002"
	 xml:space="preserve">
<g>
	<defs>
		<rect width="135.571" height="146.002"/>
	</defs>
	<clipPath >
		<use  overflow="visible"/>
	</clipPath>
	<path clip-path="url(#SVGID_2_)" d="M132.477,23.954c-2.062-2.064-4.508-3.096-7.332-3.096h-10.428v-7.822
		c0-3.584-1.276-6.653-3.83-9.206C108.333,1.277,105.266,0,101.68,0h-5.213c-3.586,0-6.653,1.277-9.207,3.83
		c-2.554,2.553-3.83,5.622-3.83,9.206v7.822H52.145v-7.822c0-3.584-1.277-6.653-3.83-9.206C45.762,1.277,42.693,0,39.108,0h-5.214
		c-3.585,0-6.654,1.277-9.207,3.83c-2.553,2.553-3.83,5.622-3.83,9.206v7.822H10.429c-2.825,0-5.269,1.032-7.333,3.096
		S0,28.463,0,31.287v104.287c0,2.822,1.032,5.267,3.096,7.332c2.064,2.063,4.508,3.096,7.333,3.096h114.713
		c2.824,0,5.271-1.032,7.332-3.096c2.064-2.064,3.097-4.51,3.097-7.332V31.287C135.571,28.462,134.54,26.018,132.477,23.954
		 M33.893,135.573H10.429v-23.465h23.464V135.573z M33.893,106.894H10.429V80.824h23.464V106.894z M33.893,75.608H10.429V52.144
		h23.464V75.608z M32.061,38.334c-0.516-0.516-0.774-1.126-0.774-1.833V13.037c0-0.706,0.258-1.317,0.774-1.833
		c0.516-0.516,1.126-0.774,1.833-0.774h5.214c0.706,0,1.317,0.258,1.833,0.774c0.516,0.516,0.774,1.127,0.774,1.833v23.464
		c0,0.707-0.259,1.317-0.774,1.833c-0.516,0.516-1.126,0.774-1.833,0.774h-5.214C33.188,39.108,32.577,38.85,32.061,38.334
		 M65.179,135.573H39.107v-23.465h26.072V135.573z M65.179,106.894H39.107V80.824h26.072V106.894z M65.179,75.608H39.107V52.144
		h26.072V75.608z M96.466,135.573H70.394v-23.465h26.072V135.573z M96.466,106.894H70.394V80.824h26.072V106.894z M96.466,75.608
		H70.394V52.144h26.072V75.608z M94.632,38.334c-0.515-0.516-0.771-1.126-0.771-1.833V13.037c0-0.706,0.257-1.317,0.771-1.833
		c0.517-0.516,1.127-0.774,1.834-0.774h5.213c0.707,0,1.318,0.258,1.834,0.774c0.517,0.516,0.773,1.127,0.773,1.833v23.464
		c0,0.707-0.258,1.317-0.773,1.833c-0.515,0.516-1.127,0.774-1.834,0.774h-5.213C95.759,39.108,95.147,38.85,94.632,38.334
		 M125.143,135.573h-23.465v-23.465h23.465V135.573z M125.143,106.894h-23.465V80.824h23.465V106.894z M125.143,75.608h-23.465
		V52.144h23.465V75.608z"/>
</g>
</svg>
