<?xml version="1.0" encoding="UTF-8"?>
<svg width="21px" height="29px" viewBox="0 0 21 29" version="1.1" xmlns="http://www.w3.org/2000/svg" xmlns:xlink="http://www.w3.org/1999/xlink">
    <!-- Generator: Sketch 63.1 (92452) - https://sketch.com -->
    <title>fi-marker copy 12</title>
    <desc>Created with Sketch.</desc>
    <g id="Home-Ph2" stroke="none" stroke-width="1" fill="none" fill-rule="evenodd">
        <g id="1_inomn-home-phase-2" transform="translate(-511.000000, -453.000000)">
            <g id="fi-marker-copy-12" transform="translate(512.000000, 454.000000)">
                <path d="M9.5,0 C4.25126769,0 0,4.30639905 0,9.61786328 C0,11.7756669 0.701694975,13.7677218 1.88713166,15.3723474 L7.98072763,26.0580285 C8.01609872,26.12692 8.05146981,26.1954704 8.09492571,26.2585641 L8.10840041,26.2820963 L8.11210595,26.28005 C8.42337151,26.7159079 8.92429346,27 9.50505301,27 C10.0292188,27 10.4860111,26.7585388 10.8003085,26.3864566 L10.8161413,26.3956649 L10.8764406,26.2899404 C10.9653736,26.1685277 11.0442006,26.0389299 11.1011312,25.8960312 L17.0710968,15.4265739 C18.2811248,13.8123989 19,11.8005634 19,9.61786328 C19,4.30639905 14.7487323,0 9.5,0 Z" id="Shape" stroke="#837B7B" stroke-width="2" fill="#FFB4C2" fill-rule="nonzero"></path>
                <circle id="Oval" fill="#000000" opacity="0.9382766" cx="9.5" cy="9.5" r="3.5"></circle>
            </g>
        </g>
    </g>
</svg>