<?xml version="1.0" encoding="UTF-8"?>
<svg width="30.4285714px" height="30px" viewBox="0 0 30.4285714 30" version="1.1" xmlns="http://www.w3.org/2000/svg" xmlns:xlink="http://www.w3.org/1999/xlink">
    <title>icon/change-orientation</title>
    <g id="new-ideas" stroke="none" stroke-width="1" fill="none" fill-rule="evenodd">
        <g id="m-zoom-mode-copy" transform="translate(-164.571429, -175.000000)" fill="#FFFFFF">
            <g id="Group" transform="translate(165.000000, 160.000000)">
                <g id="icon/change-orientation" transform="translate(-0.428571, 15.000000)">
                    <path d="M13.9285714,0 C14.7569986,0 15.4285714,0.671572875 15.4285714,1.5 L15.4285714,28.5 C15.4285714,29.3284271 14.7569986,30 13.9285714,30 L1.5,30 C0.671572875,30 0,29.3284271 0,28.5 L0,1.5 C0,0.671572875 0.671572875,0 1.5,0 L13.9285714,0 Z M13.1775,2.25 L2.25,2.25 L2.25,27.75 L13.1775,27.75 L13.1775,2.25 Z M28.9285714,15 C29.7569986,15 30.4285714,15.6715729 30.4285714,16.5 L30.4285714,28.5 C30.4285714,29.3284271 29.7569986,30 28.9285714,30 L18.4285714,30 L18.4285714,27.75 L28.1785714,27.75 L28.1785714,17.25 L18.4285714,17.25 L18.4285714,15 L28.9285714,15 Z M26.1010691,1.5 L23.8477969,3.94525319 C25.5001666,5.98296868 26.4015954,8.15653456 27.0024979,10.7376381 C27.1347737,11.3955751 27.2379278,12.0681445 27.3095858,12.7493335 L25.0925714,12.749 L25.049602,12.3678159 C24.4724913,8.74064812 23.4692837,7.05204949 22.454246,5.71717221 L22.3454655,5.57543098 L19.6414789,8.42823536 C19.3709246,6.59282895 18.8565313,4.09614712 18.4277333,2.12943482 L18.4285714,1.5 L26.1010691,1.5 Z" id="Combined-Shape"></path>
                </g>
            </g>
        </g>
    </g>
</svg>