<?xml version="1.0" encoding="UTF-8"?>
<svg width="109px" height="69px" viewBox="0 0 109 69" version="1.1" xmlns="http://www.w3.org/2000/svg" xmlns:xlink="http://www.w3.org/1999/xlink">
    <title>Group 3</title>
    <g id="Symbols" stroke="none" stroke-width="1" fill="none" fill-rule="evenodd">
        <g id="element/illustration" transform="translate(-1482.000000, -40.689000)" fill="#5187D2">
            <g id="Group-3" transform="translate(1482.640000, 41.311000)">
                <path d="M74,8 C80.0364449,8 85.2921228,11.3428607 88.0168115,16.2783598 C88.9828589,16.0953915 89.9802895,16 91,16 C99.836556,16 107,23.163444 107,32 C107,33.3045871 106.843864,34.5727068 106.54926,35.7866918 C107.477821,37.6585617 108,39.7683002 108,42 C108,49.7319865 101.731986,56 94,56 C92.2863492,56 90.6446094,55.6921122 89.1270805,55.1286366 C86.7471701,62.5932339 79.754994,68 71.5,68 C64.1833704,68 57.8587811,63.7525703 54.8574305,57.5889092 C52.6175819,59.1105359 49.9126637,60 47,60 C39.2680135,60 33,53.7319865 33,46 C33,40.3632389 36.3312484,35.5045325 41.1324197,33.2852062 C42.2256685,24.1120511 50.03228,17 59.5,17 C59.5360893,17 59.5721544,17.0001033 59.6081951,17.0003097 C62.2040879,11.6721776 67.6732024,8 74,8 Z" id="Combined-Shape-Copy"></path>
                <path d="M36,0 C44.9274383,0 52.3369173,6.49915649 53.7551677,15.0242003 C54.0008018,15.0080115 54.2494653,15 54.5,15 C60.8512746,15 66,20.1487254 66,26.5 C66,32.8512746 60.8512746,38 54.5,38 C53.0743114,38 51.709217,37.7405658 50.4493509,37.2663315 C47.9371457,42.4359568 42.6347863,46 36.5,46 C31.8967086,46 27.7621056,43.9933066 24.9232404,40.8069693 C22.3127532,42.8096597 19.045386,44 15.5,44 C6.93958638,44 0,37.0604136 0,28.5 C0,19.9395864 6.93958638,13 15.5,13 C16.5674805,13 17.6097572,13.1079106 18.6165165,13.3134182 C20.6784055,5.64482778 27.6799927,0 36,0 Z" id="Combined-Shape-Copy-3" opacity="0.776230923"></path>
            </g>
        </g>
    </g>
</svg>