<?xml version="1.0" encoding="UTF-8"?>
<svg width="72px" height="46px" viewBox="0 0 72 46" version="1.1" xmlns="http://www.w3.org/2000/svg" xmlns:xlink="http://www.w3.org/1999/xlink">
    <title>Combined Shape Copy 3</title>
    <g id="Symbols" stroke="none" stroke-width="1" fill="none" fill-rule="evenodd" opacity="0.776230923">
        <g id="element/illustration" transform="translate(-1402.000000, -63.689000)" fill="#5187D2">
            <g id="Group-3" transform="translate(1402.000000, 49.311000)">
                <path d="M33.5,14.378 C40.1256129,14.378 45.8391161,18.6382249 48.4643047,24.784633 C49.9592556,23.8877907 51.6752707,23.378 53.5,23.378 C58.9332878,23.378 63.4027132,27.8978128 63.9448166,33.6917446 C68.5650848,34.8985872 72,39.4489567 72,44.878 C72,51.2292746 67.2989899,56.378 61.5,56.378 C59.2710422,56.378 57.2043002,55.6173257 55.5043792,54.3200684 C53.5795682,56.8025643 50.7077671,58.378 47.5,58.378 C45.7462323,58.378 44.0928878,57.9070887 42.6396278,57.074419 C40.2603267,59.1441291 37.2603119,60.378 34,60.378 C29.6082517,60.378 25.688812,58.1391434 23.1220112,54.6360816 C20.6722331,56.9683593 17.4848053,58.378 14,58.378 C6.2680135,58.378 0,51.4384136 0,42.878 C0,34.3175864 6.2680135,27.378 14,27.378 C15.2163082,27.378 16.3963889,27.549727 17.5215411,27.8724765 C19.3542581,20.1120275 25.8133044,14.378 33.5,14.378 Z" id="Combined-Shape-Copy-3" transform="translate(36.000000, 37.378000) scale(-1, 1) translate(-36.000000, -37.378000) "></path>
            </g>
        </g>
    </g>
</svg>