<svg height="13" viewBox="0 0 11 13" width="11" xmlns="http://www.w3.org/2000/svg"><path d="m4.399725.53954496v8.65005417l-2.662-2.53629469c-.2167-.20476706-.5698-.20476706-.7865 0l-.7887.73997833c-.2167.20368364-.2167.53521127 0 .74106176l4.9566 4.71289277c.2189.2036836.572.2036836.7887 0l4.928-4.68255691c.2189-.20476706.2189-.53737811 0-.74106176l-.7876-.74106175c-.2167-.20476706-.5709-.20476706-.7876 0l-2.6609 2.53629469v-8.67930661c0-.30010834-.2453-.53954496-.55-.53954496h-1.1c-.3025 0-.55.23943662-.55.53954496z"/></svg>