<?xml version="1.0" encoding="UTF-8"?>
<svg width="141.856074px" height="99px" viewBox="0 0 141.856074 99" version="1.1" xmlns="http://www.w3.org/2000/svg" xmlns:xlink="http://www.w3.org/1999/xlink">
    <title>brand/inomn-logo-full</title>
    <g id="brand/inomn-logo-full" stroke="none" stroke-width="1" fill="none" fill-rule="evenodd">
        <g id="Night_6_" transform="translate(60.856074, 77.000000)" fill="#9898FF" fill-rule="nonzero">
            <g id="Group">
                <path d="M34.0304453,0 C36.3348017,0 36.6246578,0.683862434 36.6246578,2.89550265 C36.6246578,5.10714286 36.1319024,8.48280423 36.1319024,8.48280423 L36.2478448,8.48280423 C37.0884277,6.88227513 38.2043738,5.38359788 40.218874,5.38359788 C42.0594605,5.38359788 42.5232303,6.63492063 42.5232303,8.30820106 C42.5232303,10.1124339 41.9290253,12.0767196 41.9290253,13.8809524 C41.9290253,14.8849206 42.1029389,15.7579365 42.8855505,15.7579365 C43.2913491,15.7579365 43.6826549,15.5396825 44.0884535,15.1759259 C44.9302441,14.4012254 45.6588541,13.0962549 45.9090666,12.6207299 C46.075208,11.3300956 46.3348386,9.68123201 46.3348386,8.16269841 C46.3348386,7.08597884 46.1754178,6.95502646 45.5377342,6.66402116 L45.6101983,5.73280423 C46.8565797,5.55820106 48.1029611,4.3505291 48.6681806,3.17195767 L49.2189073,3.39021164 L48.7986159,5.73280423 L50.3493462,5.73280423 C51.2334075,5.73280423 51.4652924,5.66005291 51.4652924,5.66005291 C51.4652924,6.67857143 51.0884794,7.24603175 50.2623894,7.24603175 C50.1754325,7.24603175 49.9029678,7.23904762 49.6073145,7.23066667 L49.3099436,7.22202704 C48.9680207,7.21188713 48.6681806,7.20238095 48.6681806,7.20238095 C48.4073101,8.80291005 48.0884683,11.8002646 48.0884683,13.3280423 C48.0884683,14.8849206 48.4218029,15.7724868 49.7261555,15.7724868 C50.4218103,15.7724868 50.9000729,15.5251323 51.3058715,15.1759259 C52.0745941,14.4847884 52.8251505,13.1735468 53.1045176,12.6571935 L53.1765476,12.5222078 C53.2042028,12.4695767 53.218922,12.4404762 53.218922,12.4404762 C53.3058789,12.265873 53.4363141,12.1931217 53.595735,12.1931217 C53.8131271,12.1931217 54.0884905,12.3968254 53.972548,12.6587302 C53.972548,12.6587302 52.9290659,15.0595238 51.3058715,16.2962963 C50.668188,16.7910053 49.9290548,17.0965608 48.9290511,17.0965608 C47.1895849,17.0965608 45.8972317,16.1723846 45.7785312,14.3994892 C45.3389607,15.0583767 44.7638974,15.7755957 44.0884535,16.2962963 C43.45077,16.7910053 42.7551153,17.0965608 41.9290253,17.0965608 C40.4652517,17.0965608 39.6826401,16.0780423 39.6826401,14.5793651 C39.6826401,13.3134921 40.2333668,10.5634921 40.2333668,8.75925926 C40.2333668,7.42063492 39.9435107,6.88227513 39.2333631,6.88227513 C38.0739385,6.88227513 37.1029205,8.39550265 36.5087154,9.80687831 C35.7550894,11.5965608 35.4942189,13.4007937 35.4942189,15.2632275 C35.4942189,16.9102236 35.1264092,17.0419481 33.2754961,17.0520895 L32.8710208,17.0529101 C32.9588252,16.2973174 33.0570516,15.5207979 33.1594611,14.7286342 C32.371327,15.8313074 31.3878608,16.6241579 29.3057902,17.1838624 C28.8854988,19.8174603 27.7695527,22 24.3782358,22 C21.8854729,22 20.5811203,20.9087302 20.5811203,19.8320106 C20.5811203,18.5515873 22.4506924,17.8968254 25.6825884,17.212963 L27.3492612,16.8637566 C27.3202756,16.1798942 27.3057828,15.1031746 27.3057828,14.3611111 L27.1898404,14.3611111 C26.5231712,15.4960317 25.2333114,16.8637566 23.610117,16.8637566 C22.4158151,16.8637566 21.5191866,16.1091514 21.1068746,14.7552012 C20.704685,15.3122339 20.21364,15.879096 19.6535806,16.3108466 C19.0158971,16.8055556 18.3202424,17.1111111 17.4941524,17.1111111 C16.0303788,17.1111111 15.2477673,16.0925926 15.2477673,14.5939153 C15.2477673,13.4880952 15.8999436,10.8108466 15.9144364,8.11904762 C15.9144364,6.73677249 15.6245802,5.73280423 15.6245802,5.73280423 C15.6245802,5.73280423 15.6420745,5.72763846 15.6735801,5.71889638 L15.8066474,5.68353069 C16.0588499,5.6191572 16.5242491,5.51455026 16.8854545,5.51455026 C17.7695157,5.51455026 18.2912568,6.11111111 18.2912568,7.15873016 C18.2912568,9.58862434 17.4941524,12.2222222 17.4941524,13.8955026 C17.4941524,14.8994709 17.6680661,15.7724868 18.4506776,15.7724868 C18.8564762,15.7724868 19.247782,15.5542328 19.6535806,15.1904762 C20.1230301,14.7584415 20.5572796,14.1614893 20.8929853,13.6354516 C20.8685044,13.3948263 20.8564836,13.1416981 20.8564836,12.8769841 C20.8564836,8.89021164 23.5231602,5.47089947 27.1173763,5.47089947 C28.044916,5.47089947 28.8999916,5.71825397 30.5376788,5.76190476 L30.6101429,5.83465608 C30.2768083,7.14417989 29.8710097,10.228836 29.697096,12.542328 C29.6101392,13.7645503 29.5666607,15.0886243 29.4072399,16.3690476 C31.1173911,15.8597884 32.1608732,15.0740741 33.2478338,13.1097884 C33.3077275,12.9975435 33.3621208,12.8963431 33.4094982,12.8086215 C33.8273424,9.56997314 34.2333447,6.14946732 34.2333447,2.88095238 C34.2333447,1.90608466 34.1898662,0.945767196 34.0304453,0 Z M27.3492612,17.6349206 L25.8999805,17.9404762 C24.4506998,18.2460317 22.7260558,18.6970899 22.7260558,19.5846561 C22.7405486,20.0793651 23.2188112,21.1124339 24.6246135,21.1124339 C26.0014302,21.1124339 27.2623044,20.1084656 27.3492612,17.6349206 Z M26.8854914,6.51851852 C24.3782358,6.51851852 23.2477968,10.3743386 23.2477968,12.7314815 C23.2477968,14.2883598 23.7550451,15.4232804 24.508671,15.4232804 C25.6825884,15.4232804 27.3492612,12.8915344 27.6246246,11.3492063 C27.7115814,10.8399471 27.9289735,9.03571429 28.044916,7.53703704 C27.972452,6.82407407 27.595639,6.51851852 26.8854914,6.51851852 Z M17.4071955,0.611111111 C18.1898071,0.611111111 18.8709691,1.29497354 18.8709691,2.08068783 C18.8709691,2.83730159 18.1898071,3.53571429 17.4071955,3.53571429 C16.6535696,3.52116402 15.9579148,2.83730159 15.9579148,2.08068783 C15.9579148,1.29497354 16.6535696,0.611111111 17.4071955,0.611111111 Z M0.769452901,10.7089947 C0.856409744,9.37037037 1.11728027,4.68518519 1.11728027,3.62301587 C0.523075179,2.15343915 0.479596757,1.57142857 0.479596757,1.57142857 C0.841916936,1.45502646 1.59554291,0.989417989 2.23322642,0.989417989 C2.56656099,0.989417989 2.85641713,1.12037037 3.05931643,1.48412698 C3.55207188,2.40079365 4.32019066,3.46296296 5.10280224,4.58333333 L8.82745369,9.98148148 C9.78397896,11.3637566 10.5376049,12.484127 10.7405042,12.9497354 L10.8274611,12.8624339 C10.8274611,11.1018519 11.2767381,5.93650794 11.2767381,3.63756614 C11.2767381,2.42989418 11.2477525,1.28042328 11.2477525,1.28042328 C11.2477525,1.28042328 11.6100727,1.07671958 12.0303641,1.07671958 C12.8999325,1.07671958 12.9144253,1.49867725 12.9144253,2.24074074 C12.9144253,3.49206349 11.9434072,12.3095238 11.9434072,16.1071429 C11.9434072,16.4417989 11.9723928,16.7328042 11.9868856,16.9074074 C11.9868856,16.9074074 11.5376086,17.0383598 11.1028244,17.0383598 C10.7984755,17.0383598 10.3926769,16.8783069 10.1462991,16.4417989 C9.68252931,15.5687831 8.89991772,14.4338624 8.05933491,13.2261905 L4.26221943,7.76984127 C3.29120135,6.37301587 2.5810538,5.26719577 2.47960415,4.8452381 L2.3926473,4.93253968 C2.14626958,8.41005291 2.05931274,11.9312169 1.79844221,15.5833333 C1.71148537,16.7910053 1.66800694,17.0965608 0.928873779,17.0965608 C0.479596757,17.0965608 0.00133412072,16.8783069 0.00133412072,16.8783069 C-0.0276514936,16.8492063 0.421625529,16.2526455 0.769452901,10.7089947 Z" id="Combined-Shape"></path>
            </g>
        </g>
        <g id="Moon_5_" transform="translate(59.856074, 54.000000)" fill="#FFFFFF" fill-rule="nonzero">
            <polygon id="N_9_" points="64.7690053 4.22222222 64.7690053 18.7637918 62.8686573 18.7637918 62.8686573 0 63.2401539 0 76.099652 14.8663559 76.099652 0.295260295 78 0.295260295 78 19 77.5713501 19"></polygon>
            <path d="M50.5521158,19 C45.4797582,19 41.4361605,15.6045066 41.4361605,9.49261849 C41.4361605,3.41025641 45.4797582,0.0147630148 50.5521158,0.0147630148 C55.6244733,0.0147630148 59.6966477,3.41025641 59.6966477,9.52214452 C59.6966477,15.6045066 55.6244733,19 50.5521158,19 Z M50.5521158,1.6977467 C46.6085364,1.6977467 43.4079502,4.5027195 43.4079502,9.50738151 C43.4079502,14.5710956 46.6085364,17.3465423 50.5521158,17.3465423 C54.5242718,17.3465423 57.724858,14.5710956 57.724858,9.53690754 C57.724858,4.48795649 54.5242718,1.6977467 50.5521158,1.6977467 Z" id="O_24_"></path>
            <path d="M29.9912072,19 C24.9188496,19 20.8752519,15.6045066 20.8752519,9.49261849 C20.8752519,3.41025641 24.9188496,0.0147630148 29.9912072,0.0147630148 C35.0635648,0.0147630148 39.1357391,3.41025641 39.1357391,9.52214452 C39.1357391,15.6045066 35.0635648,19 29.9912072,19 Z M29.9912072,1.6977467 C26.0476278,1.6977467 22.8470416,4.5027195 22.8470416,9.50738151 C22.8470416,14.5710956 26.0476278,17.3465423 29.9912072,17.3465423 C33.9633633,17.3465423 37.1639971,14.5710956 37.1639971,9.53690754 C37.1782378,4.48795649 33.9776516,1.6977467 29.9912072,1.6977467 Z" id="O_22_"></path>
            <polygon id="M_9_" points="15.7171643 0.0590520591 16.1172376 0.0590520591 19.2892471 18.7637918 17.4460524 18.7637918 15.0170361 4.54700855 9.63033523 13.7886558 4.27221103 4.54700855 1.84319472 18.7637918 0 18.7637918 3.17200953 0.0590520591 3.54350614 0.0590520591 9.63033523 10.4522145"></polygon>
        </g>
        <g id="the_5_" transform="translate(32.856074, 53.000000)" fill="#FFFFFF" fill-rule="nonzero">
            <path d="M20.8776978,4.4004004 C22.3165468,4.4004004 23.3956835,5.21321321 23.3956835,6.36236236 C23.3956835,8.73073073 20.4316547,9.52952953 18.3021583,9.65565566 C18.3165468,11.3233233 19.1798561,12.9069069 21.3093525,12.9069069 C23.7841727,12.9069069 24.6618705,11.4354354 25.352518,10.1321321 C25.4244604,9.99199199 25.5395683,9.93593594 25.6690647,9.93593594 C25.8129496,9.93593594 26,10.048048 26,10.2022022 C26,10.3283283 25.8129496,10.6366366 25.7266187,10.8188188 C24.9784173,12.1781782 23.5395683,14 20.8345324,14 C18.2446043,14 16.2877698,12.4164164 16.2877698,9.78178178 C16.2877698,7.00700701 18.3309353,4.4004004 20.8776978,4.4004004 Z M21.3956835,6.44644645 C21.3956835,5.71771772 21.0359712,5.1991992 20.4748201,5.1991992 C19.3956835,5.1991992 18.4748201,7.07707708 18.3165468,8.98298298 C19.8417266,8.94094094 21.3956835,8.57657658 21.3956835,6.44644645 Z" id="e_8_"></path>
            <path d="M6.97841727,2.34034034 C6.97841727,1.54154154 6.9352518,0.756756757 6.8057554,0 C8.74820144,0 8.99280576,0.560560561 8.99280576,2.36836837 C8.99280576,4.16216216 8.57553957,6.92292292 8.57553957,6.92292292 L8.6618705,6.92292292 C9.36690647,5.61961962 10.3021583,4.4004004 12,4.4004004 C13.5539568,4.4004004 13.942446,5.42342342 13.942446,6.78278278 C13.942446,8.25425425 13.4388489,9.85185185 13.4388489,11.3233233 C13.4388489,12.1361361 13.5827338,12.8508509 14.2446043,12.8508509 C14.5755396,12.8508509 14.9208633,12.6686687 15.2517986,12.3743744 C16.1294964,11.5895896 16.8489209,10.1461461 16.8489209,10.1461461 C16.9208633,10.006006 17.0359712,9.94994995 17.1654676,9.94994995 C17.352518,9.94994995 17.5827338,10.1181181 17.4820144,10.3283283 C17.4820144,10.3283283 16.6043165,12.2762763 15.2374101,13.2852853 C14.6906475,13.6916917 14.1151079,13.9439439 13.4244604,13.9439439 C12.1870504,13.9439439 11.5395683,13.1031031 11.5395683,11.8978979 C11.5395683,10.8608609 12,8.63263263 12,7.16116116 C12,6.06806807 11.7553957,5.63363363 11.1654676,5.63363363 C10.2014388,5.63363363 9.38129496,6.86686687 8.87769784,8.01601602 C8.24460432,9.47347347 8.01438849,10.9449449 8.01438849,12.4724725 C8.01438849,13.9019019 7.65467626,13.9299299 5.81294964,13.9299299 C6.24460432,10.3283283 6.97841727,6.20820821 6.97841727,2.34034034 Z" id="h_9_"></path>
            <path d="M0.676258993,6.64264264 C0.676258993,5.77377377 0.54676259,5.66166166 0,5.42342342 L0.0575539568,4.66666667 C1.10791367,4.52652653 2.14388489,3.54554555 2.63309353,2.57857858 L3.09352518,2.76076076 L2.73381295,4.66666667 L4.04316547,4.66666667 C4.79136691,4.66666667 4.97841727,4.61061061 4.97841727,4.61061061 C4.97841727,5.45145145 4.6618705,5.8998999 3.97122302,5.8998999 C3.78417266,5.8998999 2.63309353,5.85785786 2.63309353,5.85785786 C2.4028777,7.16116116 2.14388489,9.5995996 2.14388489,10.8468468 C2.14388489,12.1221221 2.41726619,12.8508509 3.52517986,12.8508509 C4.10071942,12.8508509 4.51798561,12.6546547 4.84892086,12.3603604 C5.66906475,11.6456456 6.44604317,10.1321321 6.44604317,10.1321321 C6.51798561,9.99199199 6.63309353,9.93593594 6.76258993,9.93593594 C6.94964029,9.93593594 7.17985612,10.1041041 7.07913669,10.3143143 C7.07913669,10.3143143 6.20143885,12.2762763 4.83453237,13.2712713 C4.28776978,13.6776777 3.68345324,13.9299299 2.83453237,13.9299299 C1.30935252,13.9299299 0.18705036,13.0890891 0.18705036,11.5195195 C0.201438849,10.4684685 0.676258993,8.43643644 0.676258993,6.64264264 Z" id="t_19_"></path>
        </g>
        <g id="Observe_4_" transform="translate(33.856074, 22.000000)" fill="#FFFFFF" fill-rule="nonzero">
            <polygon id="E_18_" points="96.2790698 2.74431818 105.603849 2.74431818 105.603849 4.50126263 98.1844427 4.50126263 98.1844427 10.7159091 103.842823 10.7159091 103.842823 12.4728535 98.1844427 12.4728535 98.1844427 20.8074495 108 20.8074495 107.59583 22.6079545 96.2790698 22.6079545 96.2790698 2.74431818"></polygon>
            <polygon id="V_9_" points="92.266239 2.74431818 94.2582197 2.74431818 86.1748196 23 85.8283881 23 77.7161187 2.74431818 79.6792302 2.74431818 86.0016038 18.832702"></polygon>
            <path d="M69.3873296,13.7941919 L67.712911,13.7941919 L67.712911,22.6079545 L65.8075381,22.6079545 L65.8075381,2.74431818 L69.5605453,2.74431818 C73.5445068,2.74431818 76.0272654,4.66098485 76.0272654,8.21843434 C76.0272654,10.9772727 74.3239775,12.6325758 72.0433039,13.0246212 C74.9302326,14.0555556 76.1716119,21.0397727 80.0400962,20.9671717 L79.6503609,22.7676768 C74.0497193,22.7676768 73.8765036,13.7941919 69.3873296,13.7941919 Z M69.7193264,4.44318182 L67.6984763,4.44318182 L67.6984763,12.1388889 L69.5461107,12.1388889 C72.4330393,12.1388889 74.1363272,10.8611111 74.1363272,8.29103535 C74.1363272,5.75 72.4907779,4.44318182 69.7193264,4.44318182 Z" id="R_9_"></path>
            <polygon id="E_17_" points="52.0657578 2.74431818 61.3905373 2.74431818 61.3905373 4.50126263 53.9711307 4.50126263 53.9711307 10.7159091 59.6295108 10.7159091 59.6295108 12.4728535 53.9711307 12.4728535 53.9711307 20.8074495 63.7866881 20.8074495 63.382518 22.6079545 52.0657578 22.6079545 52.0657578 2.74431818"></polygon>
            <path d="M47.9374499,6.01136364 C46.6960706,4.98042929 45.1082598,4.2834596 43.4627105,4.2834596 C41.7305533,4.2834596 39.7097033,5.0530303 39.7097033,7.33270202 C39.7097033,12.2695707 49.1788292,10.1205808 49.1788292,17.2645202 C49.1788292,20.5896465 46.7826784,22.9709596 43.1451484,22.9709596 C41.1531676,22.9709596 39.1611868,22.4191919 37.1114675,20.7929293 L37.9198075,19.1957071 C39.5942261,20.5025253 41.499599,21.1849747 43.1162791,21.1849747 C45.8011227,21.1849747 47.3023256,19.5151515 47.3023256,17.2790404 C47.3023256,11.6742424 37.8043304,13.8813131 37.8043304,7.37626263 C37.8043304,4.26893939 40.1716119,2.46843434 43.3761026,2.46843434 C45.3103448,2.46843434 46.9558941,3.20896465 48.052927,4.10921717 C48.0240577,4.73358586 47.9663192,5.37247475 47.9374499,6.01136364 Z" id="S_9_"></path>
            <path d="M27.8155573,22.6079545 L23.8027265,22.6079545 L23.8027265,2.77335859 L27.0938252,2.77335859 C31.1355253,2.77335859 33.9935846,3.92045455 33.9935846,7.57954545 C33.9935846,9.75757576 32.7810746,11.1660354 30.8468324,11.4564394 C33.8492382,11.8049242 35.5236568,13.5328283 35.5236568,16.7708333 C35.5236568,21.2285354 32.521251,22.6079545 27.8155573,22.6079545 Z M27.2959102,4.44318182 L25.7080994,4.44318182 L25.7080994,10.7594697 L27.4113873,10.7594697 C30.8757017,10.7594697 32.0593424,9.85921717 32.0593424,7.68118687 C32.0882117,5.24179293 30.4426624,4.44318182 27.2959102,4.44318182 Z M27.9887731,12.4583333 L25.7080994,12.4583333 L25.7080994,20.8219697 L28.2774659,20.8219697 C32.0593424,20.8219697 33.531676,19.5732323 33.5894146,16.6837121 C33.5894146,14.0555556 32.1748196,12.4583333 27.9887731,12.4583333 Z" id="B_9_"></path>
            <path d="M10.234162,22.8983586 C4.53247795,22.8983586 0,18.8036616 0,11.427399 C0,4.09469697 4.53247795,0 10.234162,0 C15.935846,0 20.4971933,4.09469697 20.4971933,11.4709596 C20.4971933,18.8036616 15.9214114,22.8983586 10.234162,22.8983586 Z M10.234162,2.01830808 C5.80272654,2.01830808 2.2085004,5.40151515 2.2085004,11.4419192 C2.2085004,17.5549242 5.80272654,20.8945707 10.234162,20.8945707 C14.7089014,20.8945707 18.3031275,17.5549242 18.3031275,11.4709596 C18.3031275,5.38699495 14.6944667,2.01830808 10.234162,2.01830808 Z" id="O_6_"></path>
        </g>
        <g id="International_6_" transform="translate(24.856074, 0.000000)" fill="#9898FF" fill-rule="nonzero">
            <path d="M0.46362053,7.55504587 C0.622850378,5.06422018 0.6662767,3.67431193 0.6662767,2.17431193 C0.6662767,1.22477064 0.651801259,1.08715596 0.651801259,1.08715596 C1.0571136,0.97706422 1.40452418,0.908256881 1.78088563,0.908256881 C2.73626472,0.908256881 3.1560525,1.34862385 3.1560525,2.42201835 C3.1560525,3.89449541 2.41780502,8.64220183 2.41780502,13.2247706 C2.41780502,13.4174312 2.43228047,14.1743119 2.46123135,14.6559633 C1.99801724,14.7385321 1.60718035,14.8486239 1.18739256,14.8486239 C0.535997733,14.8486239 0.00040642763,14.5045872 0.00040642763,13.940367 C-0.0140690131,13.5 0.362292445,9.28899083 0.46362053,7.55504587 Z M111.084938,0 C113.212828,0 113.473386,0.605504587 113.473386,2.51834862 C113.473386,3.3952863 113.314759,4.88721923 113.128782,6.45886023 L113.034122,7.24884489 C112.794813,9.22802147 112.546958,11.1923442 112.546958,12.0963303 C112.546958,12.9770642 112.706188,13.733945 113.42996,13.733945 C113.791846,13.733945 114.168207,13.5412844 114.530093,13.2247706 C115.485472,12.3853211 116.281622,10.8302752 116.281622,10.8302752 C116.368474,10.6788991 116.484278,10.6100917 116.629032,10.6100917 C116.831688,10.6100917 117.077771,10.7889908 116.976443,11.0229358 C116.976443,11.0229358 116.964648,11.0485899 116.941634,11.0956885 L116.880819,11.217231 C116.604231,11.7585797 115.744958,13.3022426 114.530093,14.1880734 C113.9366,14.6146789 113.299681,14.8899083 112.546958,14.8899083 C111.200742,14.8899083 110.47697,13.9954128 110.47697,12.7018349 L110.481434,12.5442092 C110.203954,12.9365335 109.870663,13.3518212 109.49264,13.7201835 C108.797819,14.3807339 107.943768,14.8899083 106.959438,14.8899083 C105.656648,14.8899083 104.860499,14.0366972 104.860499,12.853211 C104.860499,12.7431193 104.860499,12.6192661 104.874974,12.5091743 L104.773646,12.5091743 C104.165678,13.6376147 102.978692,14.9724771 101.45877,14.9724771 C100.304512,14.9724771 99.4697211,14.1937314 99.126937,12.8822826 C98.9083013,13.1687161 98.6606019,13.4564746 98.3899769,13.7201835 C97.738582,14.3394495 96.884531,14.8899083 95.8567747,14.8899083 C94.5105587,14.8899083 93.7867867,13.9954128 93.7867867,12.7018349 C93.7867867,11.6009174 94.2934271,9.20642202 94.2934271,7.63761468 C94.2934271,6.49541284 94.0328692,6 93.3814744,6 C92.3247672,6 91.4272899,7.32110092 90.8627477,8.54587156 C90.1679265,10.1009174 89.9652704,11.6697248 89.9652704,13.3073394 C89.9652704,14.8348624 89.7770896,14.8623853 87.7650034,14.8623853 C87.7650034,14.286845 87.8383276,13.5075438 87.9392058,12.6466522 C87.5649521,12.9868714 87.0958373,13.2110092 86.4766892,13.2110092 C85.6226382,13.2110092 84.9422924,12.8669725 84.5225047,12.2752294 C83.7842572,13.8027523 82.4235658,15 80.2522497,15 C78.2575744,15 76.8753568,13.940727 76.2478445,12.3881498 C75.8317619,13.0016306 75.2668654,13.6962454 74.5923523,14.1880734 C73.9988593,14.6146789 73.3619399,14.8899083 72.609217,14.8899083 C71.286834,14.8899083 70.565051,14.0268043 70.5399089,12.7701603 C70.164868,13.2731259 69.6989282,13.7892457 69.1640621,14.1743119 C68.570569,14.6009174 67.8902233,14.8761468 66.9782705,14.8761468 C65.3763338,14.8761468 64.1959896,14.0620252 64.0908227,12.517425 C63.8115719,12.9166868 63.4714209,13.343031 63.084377,13.7201835 C62.3895558,14.3807339 61.5355048,14.8899083 60.5511749,14.8899083 C59.2483852,14.8899083 58.452236,14.0366972 58.452236,12.853211 C58.452236,12.7431193 58.452236,12.6192661 58.4667114,12.5091743 L58.3653833,12.5091743 C57.7574148,13.6376147 56.5704287,14.9724771 55.0505074,14.9724771 C53.8965372,14.9724771 53.0618754,14.1941205 52.7189312,12.8832656 C52.4993908,13.1694683 52.2519853,13.4568193 51.981714,13.7201835 C51.3303191,14.3394495 50.4762681,14.8899083 49.4485119,14.8899083 C48.1022959,14.8899083 47.3785238,13.9954128 47.3785238,12.7018349 C47.3785238,11.6009174 47.8851643,9.20642202 47.8851643,7.63761468 C47.8851643,6.49541284 47.6246063,6 46.9732115,6 C45.9165043,6 45.019027,7.32110092 44.4544848,8.54587156 C43.7596637,10.1009174 43.5570075,11.6697248 43.5570075,13.3073394 C43.5570075,14.8348624 43.3688268,14.8623853 41.3567405,14.8623853 C41.3567405,14.2778588 41.4323723,13.483159 41.5356881,12.6062686 C40.6554079,13.6869632 39.2304929,14.8623853 37.3470434,14.8623853 C35.9139748,14.8623853 35.1033501,14.0091743 35.1033501,12.3715596 C35.1033501,10.6238532 35.7981713,8.55963303 36.4495661,7.32110092 C35.9429257,7.43119266 35.5665642,7.51376147 35.0599238,7.51376147 C34.770415,7.51376147 34.3795781,7.47247706 34.1334956,7.43119266 C34.1913974,7.74770642 34.2203482,8.05045872 34.2203482,8.38073394 C34.2203482,9.21906946 34.0230287,10.0925776 33.696688,10.8713988 C33.6985822,10.8790374 33.6992324,10.8889496 33.6992324,10.8990826 C33.6992324,11.0366972 33.4965762,11.3669725 33.3952481,11.559633 C32.5846234,13.0183486 31.0068004,14.9587156 28.0393351,14.9587156 C25.9697913,14.9587156 24.2699451,14.0580919 23.5016097,12.4811679 C23.094341,13.0689908 22.5543344,13.7149168 21.9162236,14.1743119 C21.3227306,14.6009174 20.6423849,14.8761468 19.7304321,14.8761468 C18.1351337,14.8761468 16.957941,14.0687586 16.844347,12.5365896 C16.5673963,12.930212 16.231913,13.3490188 15.851014,13.7201835 C15.1996192,14.3394495 14.3455682,14.8899083 13.3178119,14.8899083 C11.9715959,14.8899083 11.2478239,13.9954128 11.2478239,12.7018349 C11.2478239,11.6009174 11.7544643,9.20642202 11.7544643,7.63761468 C11.7544643,6.49541284 11.4939063,6 10.8425115,6 C9.78580434,6 8.88832702,7.32110092 8.32378483,8.54587156 C7.62896368,10.1009174 7.42630751,11.6697248 7.42630751,13.3073394 C7.42630751,14.8348624 7.23812678,14.8623853 5.22604052,14.8623853 C5.22604052,13.0183486 5.97876344,9.08256881 5.97876344,7.0733945 C5.97876344,5.87614679 5.7182055,4.99541284 5.7182055,4.99541284 C5.7182055,4.99541284 6.39855122,4.80275229 6.87624076,4.80275229 C7.68686544,4.80275229 8.16455498,5.32568807 8.16455498,6.23394495 C8.16455498,6.72300635 8.02982203,7.22192063 7.98836574,7.3638573 L7.97637425,7.40366972 L8.07770234,7.40366972 C8.85937614,6.02752294 9.87265698,4.72018349 11.7399888,4.72018349 C13.4336154,4.72018349 13.8678786,5.80733945 13.8678786,7.22477064 C13.8678786,7.81307339 13.7905255,8.42459862 13.6938341,9.04192947 L13.4918564,10.2791714 C13.395165,10.8965023 13.3178119,11.5080275 13.3178119,12.0963303 C13.3178119,12.9770642 13.4770417,13.733945 14.2008138,13.733945 C14.8377331,13.733945 15.4457017,13.1559633 15.851014,12.6605505 C16.3715937,12.052232 16.7865395,11.3280399 16.9619153,11.0030813 C17.1150264,9.88021721 17.3564598,8.43514835 17.3564598,7.1146789 C17.3564598,6.17889908 17.2117054,6.06880734 16.6182123,5.80733945 L16.6761141,4.99541284 C17.8196739,4.83027523 18.9632337,3.78440367 19.498825,2.75229358 L20.0054655,2.94495413 L19.6146286,4.98165138 L21.0476972,4.98165138 C21.6846166,4.98165138 21.9551449,4.94766898 22.0418392,4.93310509 L22.0719929,4.92740792 C22.0743457,4.92688635 22.0754535,4.9266055 22.0754535,4.9266055 C22.0754535,5.82110092 21.7280429,6.30275229 20.97532,6.30275229 C20.8942575,6.30275229 20.6418058,6.29614679 20.3680463,6.28822018 L20.0927427,6.28004893 C19.7762388,6.27045872 19.498825,6.26146789 19.498825,6.26146789 C19.2527426,7.66513761 18.9632337,10.266055 18.9632337,11.6009174 C18.9632337,12.9633028 19.267218,13.733945 20.4686796,13.733945 C21.105599,13.733945 21.5543376,13.5137615 21.9162236,13.2110092 C22.3965505,12.8059291 22.8644386,12.1485756 23.1956196,11.6250098 C23.1063726,11.2624568 23.0597835,10.8727064 23.0597835,10.4587156 C23.0597835,7.5 25.3034768,4.72018349 28.0827614,4.72018349 C29.6605844,4.72018349 30.8475706,5.60091743 30.8475706,6.81192661 C30.8475706,9.33027523 27.6050718,10.1972477 25.2745259,10.3211009 C25.2890013,12.1100917 26.229905,13.8027523 28.5604509,13.8027523 C31.2142817,13.8027523 32.1886945,12.3108624 32.9334834,10.9350826 C32.9410599,10.8965823 32.955742,10.8563485 32.9754603,10.8165138 C33.2215428,10.293578 33.3373464,9.68807339 33.3373464,9.06880734 C33.3373464,8.40825688 33.2360183,7.73394495 33.0478375,7.14220183 C32.5846234,6.92201835 32.2951146,6.79816514 32.2951146,6.39908257 C32.2951146,5.87614679 32.6425252,4.69266055 33.3952481,4.69266055 C33.6847569,4.69266055 33.9018885,4.96788991 33.9887412,5.36697248 C33.9887412,5.36697248 34.770415,5.88990826 35.986352,5.88990826 C36.478517,5.88990826 37.0285837,5.80733945 37.462847,5.71100917 C37.7668312,5.20183486 38.5919313,4.96788991 39.4170315,4.96788991 C39.6196876,5.10550459 39.7499666,5.35321101 39.7499666,5.62844037 C39.7499666,5.80733945 39.6920648,6.0412844 39.5617859,6.15137615 L38.8235384,6.49541284 C38.186619,7.73394495 36.9996329,10.3623853 36.9996329,12.0825688 C36.9996329,12.8944954 37.2457153,13.6926606 38.3024225,13.6926606 C39.9547434,13.6926606 41.2732269,11.7884311 41.7343208,11.0249018 L41.8214994,10.33602 C41.9760167,9.10688963 42.1094634,7.91936263 42.1094634,7.0733945 C42.1094634,5.87614679 41.8489055,4.99541284 41.8489055,4.99541284 C41.8489055,4.99541284 42.5292512,4.80275229 43.0069407,4.80275229 C43.8175654,4.80275229 44.295255,5.32568807 44.295255,6.23394495 C44.295255,6.72300635 44.160522,7.22192063 44.1190657,7.3638573 L44.1070742,7.40366972 L44.2084023,7.40366972 C44.9900761,6.02752294 46.003357,4.72018349 47.8706888,4.72018349 C49.5643154,4.72018349 49.9985786,5.80733945 49.9985786,7.22477064 C49.9985786,7.81307339 49.9212255,8.42459862 49.824534,9.04192947 L49.6225564,10.2791714 C49.525865,10.8965023 49.4485119,11.5080275 49.4485119,12.0963303 C49.4485119,12.9770642 49.6077417,13.733945 50.3315137,13.733945 C50.9684331,13.733945 51.5764016,13.1559633 51.981714,12.6605505 C52.1961336,12.4099924 52.3926325,12.1397764 52.5618515,11.8858963 C52.5514584,11.7362258 52.5462562,11.5812627 52.5462562,11.4220183 C52.5462562,7.73394495 54.9926056,4.72018349 58.3653833,4.72018349 C59.1036308,4.72018349 59.9576818,4.96788991 61.4486522,5.00917431 L61.506554,5.06422018 C61.2604715,5.97247706 60.5511749,11.4082569 60.5511749,12.0963303 C60.5511749,12.9770642 60.7104047,13.733945 61.4341768,13.733945 C61.9987189,13.733945 62.592212,13.2522936 63.084377,12.6605505 C63.6247934,12.029052 64.0513722,11.2726809 64.2142755,10.9677011 L64.2385201,10.7909039 C64.3921755,9.69959684 64.6042983,8.35240151 64.6042983,7.1146789 C64.6042983,6.17889908 64.4595439,6.06880734 63.8660508,5.80733945 L63.9239526,4.99541284 C65.0675124,4.83027523 66.2110722,3.78440367 66.7466635,2.75229358 L67.2533039,2.94495413 L66.862467,4.98165138 L68.2955356,4.98165138 C69.1061603,4.98165138 69.3232919,4.9266055 69.3232919,4.9266055 C69.3232919,5.82110092 68.9758814,6.30275229 68.2231584,6.30275229 C68.0205023,6.30275229 66.7466635,6.26146789 66.7466635,6.26146789 C66.500581,7.66513761 66.2110722,10.266055 66.2110722,11.6009174 C66.2110722,12.9633028 66.5150564,13.733945 67.716518,13.733945 C68.3534374,13.733945 68.8021761,13.5137615 69.1640621,13.2110092 C69.809565,12.6666292 70.4326031,11.6666383 70.7315676,11.1480372 C70.9064988,10.0234335 71.1434194,8.548414 71.1616729,7.0733945 C71.1616729,5.87614679 70.901115,4.99541284 70.901115,4.99541284 C70.901115,4.99541284 71.5814607,4.80275229 72.0591502,4.80275229 C72.8697749,4.80275229 73.3474644,5.32568807 73.3474644,6.23394495 C73.3474644,8.35321101 72.609217,10.6376147 72.609217,12.0963303 C72.609217,12.9770642 72.7684468,13.733945 73.4922189,13.733945 C73.8541049,13.733945 74.2304663,13.5412844 74.5923523,13.2247706 C75.1516023,12.7333823 75.656291,11.9967893 75.9786641,11.4704405 C75.9034126,11.1041957 75.8661911,10.7187603 75.8661911,10.3211009 C75.8372402,7.56880734 77.6177195,4.72018349 80.9470708,4.72018349 C83.1183869,4.72018349 85.2173258,6.35779817 85.2173258,9.02752294 C85.2173258,9.70183486 85.1015223,10.4587156 84.9133416,11.146789 C85.2173258,11.9174312 85.7239662,12.4541284 86.5635418,12.4541284 C87.3814042,12.4541284 87.7617828,11.8094745 88.1229794,11.1708992 C88.3172605,9.66021039 88.5177263,8.11025479 88.5177263,7.0733945 C88.5177263,5.87614679 88.2571684,4.99541284 88.2571684,4.99541284 C88.2571684,4.99541284 88.9375141,4.80275229 89.4152036,4.80275229 C90.2258283,4.80275229 90.7035178,5.32568807 90.7035178,6.23394495 C90.7035178,6.72300635 90.5687849,7.22192063 90.5273286,7.3638573 L90.5153371,7.40366972 L90.6166652,7.40366972 C91.398339,6.02752294 92.4116198,4.72018349 94.2789517,4.72018349 C95.9725783,4.72018349 96.4068415,5.80733945 96.4068415,7.22477064 C96.4068415,7.81307339 96.3294883,8.42459862 96.2327969,9.04192947 L96.0308193,10.2791714 C95.9341279,10.8965023 95.8567747,11.5080275 95.8567747,12.0963303 C95.8567747,12.9770642 96.0160046,13.733945 96.7397766,13.733945 C97.376696,13.733945 97.9846645,13.1559633 98.3899769,12.6605505 C98.6046783,12.4096632 98.8014117,12.1390662 98.9707813,11.8848955 C98.9596979,11.7355293 98.954519,11.5809049 98.954519,11.4220183 C98.954519,7.73394495 101.400869,4.72018349 104.773646,4.72018349 C105.511894,4.72018349 106.365945,4.96788991 107.856915,5.00917431 L107.914817,5.06422018 C107.668734,5.97247706 106.959438,11.4082569 106.959438,12.0963303 C106.959438,12.9770642 107.118668,13.733945 107.84244,13.733945 C108.406982,13.733945 109.000475,13.2522936 109.49264,12.6605505 C109.987189,12.0826498 110.386404,11.4001738 110.575453,11.0547582 C110.785986,8.68424355 111.273119,5.5201436 111.273119,2.50458716 C111.273119,1.65137615 111.229693,0.811926606 111.084938,0 Z M80.9470708,5.60091743 C79.0218372,5.60091743 78.225688,8.35321101 78.225688,10.5550459 C78.225688,12.4954128 78.8047056,14.1055046 80.2232988,14.1055046 C81.9603517,14.1055046 82.6841237,12.0275229 82.8867799,10.3073394 C82.5538447,9.92201835 82.3801394,9.35779817 82.3801394,8.93119266 C82.3801394,8.55963303 82.5248939,8.2706422 82.8433535,8.25688073 C82.6406974,6.93577982 82.003778,5.60091743 80.9470708,5.60091743 Z M58.1048254,5.66972477 C55.7742794,5.66972477 54.7609986,8.98623853 54.7609986,11.2844037 C54.7609986,12.5504587 55.1663109,13.733945 55.890083,13.733945 C57.0481182,13.733945 58.5101377,11.3256881 58.7562202,9.88073394 C58.9154501,8.88990826 59.045729,7.78899083 59.1470571,6.56422018 C59.0891554,5.9587156 58.7417448,5.66972477 58.1048254,5.66972477 Z M104.513088,5.66972477 C102.182542,5.66972477 101.169261,8.98623853 101.169261,11.2844037 C101.169261,12.5504587 101.574574,13.733945 102.298346,13.733945 C103.456381,13.733945 104.932876,11.3256881 105.164483,9.88073394 C105.323713,8.88990826 105.453992,7.78899083 105.55532,6.56422018 C105.497418,5.9587156 105.150008,5.66972477 104.513088,5.66972477 Z M27.6484982,5.55963303 C26.461512,5.55963303 25.4627066,7.55504587 25.2745259,9.60550459 C26.953677,9.57798165 28.6473036,9.19266055 28.6473036,6.89449541 C28.6473036,6.12385321 28.2564667,5.55963303 27.6484982,5.55963303 Z M72.5368398,0.52293578 C73.2461364,0.52293578 73.8830558,1.12844037 73.8830558,1.80275229 C73.8830558,2.46330275 73.2461364,3.06880734 72.5368398,3.06880734 C71.8275432,3.06880734 71.2050992,2.46330275 71.2050992,1.80275229 C71.2050992,1.12844037 71.8420186,0.52293578 72.5368398,0.52293578 Z" id="Combined-Shape"></path>
        </g>
        <g id="moon-clip-path_3_" transform="translate(0.000000, 20.587951)" fill="#6161FF" fill-rule="nonzero">
            <g id="Clipped">
                <path d="M67.2328854,23.7357517 C73.1169433,41.777774 63.2038999,61.1487524 45.1169433,67.013493 C27.0299868,72.8782337 7.58071147,62.9977346 1.69665349,44.9701575 C-4.18740448,26.9425803 5.725639,7.55715684 23.8125955,1.6924162 C41.899552,-4.17232445 61.3633202,5.69372939 67.2328854,23.7357517 Z M23.8270883,1.6924162 C14.8705665,4.59589617 14.3633202,24.6169073 19.1604216,39.3076493 C24.0154941,54.2006237 36.1604216,69.916973 45.1169433,67.013493 C63.2183926,61.1487524 73.1169433,41.777774 67.2328854,23.7357517 C61.3488274,5.69372939 41.9140448,-4.17232445 23.8270883,1.6924162 Z" id="Shape"></path>
            </g>
        </g>
    </g>
</svg>